<svg width="76" height="18" viewBox="0 0 76 18" fill="none" xmlns="http://www.w3.org/2000/svg">
<path d="M60.754 0.197021C61.6744 0.197021 62.0801 0.649866 61.9708 1.55556L61.807 2.81876C61.6978 3.61323 61.2298 4.01046 60.403 4.01046H58.718C57.8132 4.01046 57.4153 3.55761 57.5246 2.65192L57.6884 1.38872C57.7664 0.594254 58.2266 0.197021 59.0691 0.197021H60.754Z" fill="#192122"/>
<path d="M61.3624 5.53583L59.7477 17.3813H55.512L57.1267 5.53583H61.3624Z" fill="#192122"/>
<path fill-rule="evenodd" clip-rule="evenodd" d="M11.9617 1.15038C11.1193 0.880262 10.0038 0.745204 8.61532 0.745204C7.71046 0.745204 6.89921 0.753147 6.18156 0.769037C5.47951 0.769037 4.81647 0.784926 4.19243 0.816704C3.58399 0.832595 2.95995 0.872317 2.32031 0.935874L0.050354 17.3813C0.783602 17.429 1.50125 17.4687 2.2033 17.5005C2.90534 17.5323 3.67759 17.5482 4.52005 17.5482C5.36251 17.564 6.36097 17.572 7.51545 17.572C8.82593 17.572 9.9024 17.4608 10.7449 17.2383C11.5873 17 12.2348 16.5869 12.6872 15.999C13.1396 15.3952 13.4438 14.5451 13.5999 13.4487C13.7871 12.114 13.6623 11.0574 13.2254 10.2788C12.7886 9.48433 11.9461 9.03148 10.6981 8.92026L10.7215 8.77725C11.8135 8.68192 12.5936 8.34824 13.0616 7.77623C13.5452 7.20421 13.8651 6.34619 14.0211 5.20216C14.1615 4.04224 14.0679 3.14449 13.7403 2.50892C13.4126 1.85745 12.8198 1.40461 11.9617 1.15038ZM8.45151 3.91512C9.05995 3.91512 9.45778 4.02635 9.64499 4.2488C9.8478 4.45536 9.91021 4.86848 9.8322 5.48816C9.70739 6.29852 9.49678 6.83081 9.20036 7.08504C8.91954 7.33927 8.41251 7.46639 7.67926 7.46639H5.71353L6.20496 3.91512H8.45151ZM5.3157 10.255H7.58565C8.3501 10.255 8.84154 10.3821 9.05995 10.6363C9.27837 10.8905 9.33297 11.4228 9.22376 12.2332C9.13016 12.8211 8.99755 13.2739 8.82593 13.5917C8.66993 13.9095 8.42031 14.124 8.07709 14.2352C7.73386 14.3465 7.27363 14.4021 6.69639 14.4021H4.75407L5.3157 10.255Z" fill="#192122"/>
<path fill-rule="evenodd" clip-rule="evenodd" d="M25.8725 5.70267C25.0457 5.36899 23.8678 5.20216 22.3389 5.20216C20.966 5.20216 19.7959 5.36899 18.8286 5.70267C17.8614 6.02046 17.0969 6.62425 16.5353 7.51405C15.9736 8.38797 15.5992 9.65911 15.412 11.3275C15.2716 12.7099 15.3496 13.8698 15.646 14.8073C15.9424 15.7447 16.5431 16.4597 17.4479 16.9523C18.3528 17.429 19.6399 17.6673 21.3092 17.6673C22.1829 17.6673 23.0955 17.5958 24.0472 17.4528C25.0144 17.3098 25.8881 17.0635 26.6682 16.714L26.3639 14.0446C25.9115 14.0922 25.3811 14.1399 24.7726 14.1876C24.1798 14.2193 23.6026 14.2511 23.0409 14.2829C22.4949 14.2988 22.0502 14.3067 21.707 14.3067C21.0362 14.3067 20.5448 14.2193 20.2327 14.0446C19.9207 13.8539 19.7569 13.4249 19.7413 12.7575L22.9473 12.4954C24.4762 12.3841 25.6229 12.1299 26.3873 11.7327C27.1674 11.3195 27.6354 10.5727 27.7914 9.49228C27.9318 8.5548 27.8538 7.76828 27.5574 7.13271C27.2766 6.49714 26.715 6.02046 25.8725 5.70267ZM21.1454 8.30057C21.4418 8.15757 21.8318 8.08607 22.3155 8.08607C22.9083 8.07018 23.3061 8.12579 23.5089 8.25291C23.7118 8.38002 23.782 8.65014 23.7196 9.06326C23.6572 9.57172 23.4855 9.89745 23.2047 10.0405C22.9239 10.1835 22.5105 10.2788 21.9644 10.3265L19.9987 10.541C20.1235 9.87362 20.2717 9.36516 20.4433 9.01559C20.6306 8.66603 20.8646 8.42769 21.1454 8.30057Z" fill="#192122"/>
<path d="M34.7446 5.20216C35.3375 5.21805 35.9849 5.24982 36.6869 5.29749C37.389 5.32927 38.0676 5.38488 38.7229 5.46433C39.3781 5.54378 39.932 5.63117 40.3844 5.72651L40.0334 8.27674H37.74C36.9912 8.26085 36.2579 8.25291 35.5403 8.25291C34.6822 8.25291 34.105 8.27674 33.8085 8.32441C33.5121 8.35619 33.3483 8.4833 33.3171 8.70575C33.2859 8.91231 33.3561 9.07121 33.5277 9.18243C33.7149 9.29366 34.0426 9.42872 34.5106 9.58761L37.2252 10.4456C38.1612 10.7316 38.8477 11.1686 39.2845 11.7565C39.7369 12.3444 39.9086 13.123 39.7994 14.0922C39.6745 15.1091 39.3703 15.8718 38.8867 16.3803C38.4031 16.8888 37.7478 17.2224 36.921 17.3813C36.0941 17.5561 35.119 17.6435 33.9958 17.6435C33.1845 17.6435 32.3265 17.6117 31.4216 17.5482C30.5323 17.4846 29.5105 17.3575 28.356 17.1668L28.7304 14.5927C28.9644 14.6086 29.2999 14.6166 29.7367 14.6166H32.5917C33.4341 14.6166 34.0738 14.6007 34.5106 14.5689C34.9474 14.5371 35.2517 14.4815 35.4233 14.4021C35.5949 14.3067 35.6885 14.1796 35.7041 14.0207C35.7353 13.8142 35.6573 13.6632 35.4701 13.5679C35.2985 13.4725 34.9396 13.3375 34.3936 13.1627L31.7726 12.2808C30.743 11.9472 30.0331 11.4546 29.6431 10.8031C29.2687 10.1358 29.1438 9.32543 29.2687 8.37208C29.3779 7.67295 29.6119 7.09298 29.9707 6.63219C30.3451 6.15552 30.9146 5.79801 31.679 5.55967C32.4435 5.32133 33.4653 5.20216 34.7446 5.20216Z" fill="#192122"/>
<path d="M46.1432 7.75239L46.0964 5.53583H42.75L41.1353 17.3813H45.3943L46.3772 10.1835C46.97 9.72267 47.4771 9.39694 47.8983 9.20627C48.3351 8.9997 48.733 8.88848 49.0918 8.87259C49.4506 8.84081 49.6846 8.91231 49.7938 9.08709C49.903 9.24599 49.9264 9.53994 49.864 9.96895L48.8344 17.3813H53.0934L54.3103 8.58658C54.4663 7.47433 54.2479 6.6322 53.6551 6.06018C53.0778 5.48816 52.3056 5.20216 51.3383 5.20216C50.4803 5.20216 49.591 5.43255 48.6706 5.89334C47.7657 6.33824 46.9232 6.95793 46.1432 7.75239Z" fill="#192122"/>
<path d="M67.8684 7.53789L68.7811 0.697534H64.522L62.2286 17.3813H66.4877L67.0026 13.7347C67.0182 13.6076 67.026 13.4646 67.026 13.3057C67.26 13.2263 67.5018 13.1468 67.7514 13.0674L68.5003 12.7814L70.5362 17.3813H74.9123L72.7593 12.7337C72.6345 12.4477 72.4785 12.1776 72.2913 11.9233C72.1041 11.6532 71.8701 11.4069 71.5893 11.1845C72.4941 10.5648 73.2976 9.80212 73.9996 8.89643C74.7173 7.99073 75.2399 6.87054 75.5675 5.53583H71.1914C70.9574 6.53686 70.4426 7.47433 69.6469 8.34824C68.8513 9.20627 67.9386 9.89745 66.9089 10.4218C67.143 9.94512 67.338 9.47639 67.494 9.01559C67.65 8.53892 67.7748 8.04635 67.8684 7.53789Z" fill="#192122"/>
</svg>
